<?xml version="1.0" encoding="UTF-8" standalone="no"?>
<!-- Created with Inkscape (http://www.inkscape.org/) -->

<svg
   version="1.1"
   id="svg1"
   width="414.53839"
   height="267.36499"
   viewBox="0 0 414.53839 267.36499"
   xmlns="http://www.w3.org/2000/svg"
   xmlns:svg="http://www.w3.org/2000/svg">
  <defs
     id="defs1" />
  <g
     id="g1"
     transform="translate(-197.64152,-165.75981)">
    <path
       id="path1"
       d="m 289.74897,340.55266 c 11.15787,24.04994 11.15787,43.99682 0,68.04669"
       style="fill:none;stroke:#000000;stroke-width:1.80488;stroke-linecap:butt;stroke-linejoin:miter;stroke-miterlimit:10;stroke-dasharray:none;stroke-opacity:1" />
    <path
       id="path2"
       d="m 289.74897,340.55266 c 4.58445,26.13327 4.58445,41.91348 0,68.04669"
       style="fill:none;stroke:#000000;stroke-width:1.80488;stroke-linecap:butt;stroke-linejoin:miter;stroke-miterlimit:10;stroke-dasharray:none;stroke-opacity:1" />
    <path
       id="path3"
       d="m 289.74897,340.55266 c -4.5845,26.13327 -4.5845,41.91348 0,68.04669"
       style="fill:none;stroke:#000000;stroke-width:1.80488;stroke-linecap:butt;stroke-linejoin:miter;stroke-miterlimit:10;stroke-dasharray:none;stroke-opacity:1" />
    <path
       id="path4"
       d="m 289.74897,340.55266 c -11.15795,24.04994 -11.15795,43.99682 0,68.04669"
       style="fill:none;stroke:#000000;stroke-width:1.80488;stroke-linecap:butt;stroke-linejoin:miter;stroke-miterlimit:10;stroke-dasharray:none;stroke-opacity:1" />
    <path
       id="path5"
       d="m 289.74897,340.55266 c -35.22681,-12.88681 -54.88039,-32.64045 -67.70189,-68.0469"
       style="fill:none;stroke:#000000;stroke-width:1.80488;stroke-linecap:butt;stroke-linejoin:miter;stroke-miterlimit:10;stroke-dasharray:none;stroke-opacity:1" />
    <path
       id="path6"
       d="m 289.74897,340.55266 c -30.70808,-21.61191 -46.19944,-37.18222 -67.70189,-68.0469"
       style="fill:none;stroke:#000000;stroke-width:1.80488;stroke-linecap:butt;stroke-linejoin:miter;stroke-miterlimit:10;stroke-dasharray:none;stroke-opacity:1" />
    <path
       id="path7"
       d="m 289.74897,340.55266 c -21.5023,-30.86461 -36.99376,-46.43498 -67.70189,-68.0469"
       style="fill:none;stroke:#000000;stroke-width:1.80488;stroke-linecap:butt;stroke-linejoin:miter;stroke-miterlimit:10;stroke-dasharray:none;stroke-opacity:1" />
    <path
       id="path8"
       d="M 289.74897,340.55266 C 276.9275,305.14617 257.27398,285.39273 222.04708,272.50576"
       style="fill:none;stroke:#000000;stroke-width:1.80488;stroke-linecap:butt;stroke-linejoin:miter;stroke-miterlimit:10;stroke-dasharray:none;stroke-opacity:1" />
    <path
       id="path9"
       d="m 289.74897,340.55266 c 12.82139,-35.40649 32.47486,-55.15993 67.70181,-68.0469"
       style="fill:none;stroke:#000000;stroke-width:1.80488;stroke-linecap:butt;stroke-linejoin:miter;stroke-miterlimit:10;stroke-dasharray:none;stroke-opacity:1" />
    <path
       id="path10"
       d="m 289.74897,340.55266 c 21.5022,-30.86461 36.99371,-46.43498 67.70181,-68.0469"
       style="fill:none;stroke:#000000;stroke-width:1.80488;stroke-linecap:butt;stroke-linejoin:miter;stroke-miterlimit:10;stroke-dasharray:none;stroke-opacity:1" />
    <path
       id="path11"
       d="m 289.74897,340.55266 c 30.70821,-21.61191 46.19952,-37.18222 67.70181,-68.0469"
       style="fill:none;stroke:#000000;stroke-width:1.80488;stroke-linecap:butt;stroke-linejoin:miter;stroke-miterlimit:10;stroke-dasharray:none;stroke-opacity:1" />
    <path
       id="path12"
       d="m 289.74897,340.55266 c 35.22688,-12.88681 54.88028,-32.64045 67.70181,-68.0469"
       style="fill:none;stroke:#000000;stroke-width:1.80488;stroke-linecap:butt;stroke-linejoin:miter;stroke-miterlimit:10;stroke-dasharray:none;stroke-opacity:1" />
    <path
       id="path13"
       d="m 222.04708,272.50576 c 12.8215,-35.40639 32.47508,-55.16004 67.70189,-68.0469"
       style="fill:none;stroke:#000000;stroke-width:1.80488;stroke-linecap:butt;stroke-linejoin:miter;stroke-miterlimit:10;stroke-dasharray:none;stroke-opacity:1" />
    <path
       id="path14"
       d="m 222.04708,272.50576 c 21.50245,-30.86461 36.99381,-46.43501 67.70189,-68.0469"
       style="fill:none;stroke:#000000;stroke-width:1.80488;stroke-linecap:butt;stroke-linejoin:miter;stroke-miterlimit:10;stroke-dasharray:none;stroke-opacity:1" />
    <path
       id="path15"
       d="m 222.04708,272.50576 c 30.70813,-21.61191 46.19959,-37.18227 67.70189,-68.0469"
       style="fill:none;stroke:#000000;stroke-width:1.80488;stroke-linecap:butt;stroke-linejoin:miter;stroke-miterlimit:10;stroke-dasharray:none;stroke-opacity:1" />
    <path
       id="path16"
       d="m 222.04708,272.50576 c 35.2269,-12.88685 54.88042,-32.6404 67.70189,-68.0469"
       style="fill:none;stroke:#000000;stroke-width:1.80488;stroke-linecap:butt;stroke-linejoin:miter;stroke-miterlimit:10;stroke-dasharray:none;stroke-opacity:1" />
    <path
       id="path17"
       d="m 357.45078,272.50576 c -35.22695,-12.88685 -54.88042,-32.6404 -67.70181,-68.0469"
       style="fill:none;stroke:#000000;stroke-width:1.80488;stroke-linecap:butt;stroke-linejoin:miter;stroke-miterlimit:10;stroke-dasharray:none;stroke-opacity:1" />
    <path
       id="path18"
       d="m 357.45078,272.50576 c -30.7081,-21.61191 -46.19961,-37.18227 -67.70181,-68.0469"
       style="fill:none;stroke:#000000;stroke-width:1.80488;stroke-linecap:butt;stroke-linejoin:miter;stroke-miterlimit:10;stroke-dasharray:none;stroke-opacity:1" />
    <path
       id="path19"
       d="m 357.45078,272.50576 c -21.50229,-30.86461 -36.9936,-46.43501 -67.70181,-68.0469"
       style="fill:none;stroke:#000000;stroke-width:1.80488;stroke-linecap:butt;stroke-linejoin:miter;stroke-miterlimit:10;stroke-dasharray:none;stroke-opacity:1" />
    <path
       id="path20"
       d="m 357.45078,272.50576 c -12.82153,-35.40639 -32.47493,-55.16004 -67.70181,-68.0469"
       style="fill:none;stroke:#000000;stroke-width:1.80488;stroke-linecap:butt;stroke-linejoin:miter;stroke-miterlimit:10;stroke-dasharray:none;stroke-opacity:1" />
    <path
       id="path21"
       d="m 327.35391,204.45886 c 0,-20.87453 -16.8361,-37.79661 -37.60494,-37.79661 -20.76894,0 -37.60505,16.92208 -37.60505,37.79661 0,20.8748 16.83611,37.79665 37.60505,37.79665 20.76884,0 37.60494,-16.92185 37.60494,-37.79665 z"
       style="fill:#ffffff;fill-opacity:1;fill-rule:nonzero;stroke:#000000;stroke-width:1.80488;stroke-linecap:butt;stroke-linejoin:miter;stroke-miterlimit:10;stroke-dasharray:none;stroke-opacity:1" />
    <path
       id="path22"
       d="m 300.68413,193.27952 c 0,-0.0726 -0.0715,-0.29113 -0.32601,-0.29113 -0.10723,0 -0.1439,0.0357 -0.4707,0.36357 l -2.17348,2.36494 c -0.25358,-0.43655 -1.66641,-2.72851 -5.10703,-2.72851 -6.84628,0 -13.76416,6.83957 -13.76416,14.00546 0,5.09341 3.6221,8.47676 8.33073,8.47676 2.68071,0 4.99861,-1.23696 6.6287,-2.65594 2.89754,-2.54667 3.40468,-5.34771 3.40468,-5.45677 0,-0.32771 -0.32581,-0.32771 -0.36229,-0.32771 -0.17894,0 -0.36231,0.0731 -0.3984,0.32771 -0.28951,0.90939 -0.97804,3.0921 -3.11473,4.87479 -2.13767,1.74636 -4.05689,2.25547 -5.68687,2.25547 -2.75297,0 -6.01287,-1.60057 -6.01287,-6.40311 0,-1.78259 0.65203,-6.80232 3.7305,-10.40376 1.88386,-2.18287 4.74522,-3.74703 7.4984,-3.74703 3.1508,0 4.96201,2.40109 4.96201,5.96655 0,1.2365 -0.10769,1.27261 -0.10769,1.56348 0,0.32753 0.36224,0.32753 0.47067,0.32753 0.39838,0 0.39838,-0.0722 0.54376,-0.6184 z m 0,0"
       style="fill:#000000;fill-opacity:1;fill-rule:nonzero;stroke:none;stroke-width:49.7506;stroke-dasharray:none"
       aria-label="C" />
    <path
       id="path23"
       d="m 245.55023,272.50576 c 0,-13.04675 -10.52242,-23.62274 -23.50315,-23.62274 -12.98035,0 -23.50312,10.57599 -23.50312,23.62274 0,13.04697 10.52277,23.62283 23.50312,23.62283 12.98073,0 23.50315,-10.57586 23.50315,-23.62283 z"
       style="fill:#ffffff;fill-opacity:1;fill-rule:nonzero;stroke:#000000;stroke-width:1.80488;stroke-linecap:butt;stroke-linejoin:miter;stroke-miterlimit:10;stroke-dasharray:none;stroke-opacity:1" />
    <g
       id="g23"
       aria-label="B&#10;1"
       transform="matrix(2.4113657,0,0,2.4218497,209.52036,279.57839)"
       style="stroke-width:16.0054;stroke-dasharray:none">
      <path
         id="path24"
         d="m 1.5930078,-0.77335156 c -0.09375,0.38671875 -0.1171875,0.46875 -0.90234374,0.46875 -0.17578125,0 -0.26953125,0 -0.26953125,0.19921875 0,0.1054687475 0.0820313,0.1054687475 0.26953125,0.1054687475 H 4.2414453 c 1.5703125,0 2.7539063,-1.1718750375 2.7539063,-2.1562500375 0,-0.7148437 -0.5859375,-1.2890625 -1.546875,-1.3945312 1.03125,-0.1992188 2.0859375,-0.9375 2.0859375,-1.875 0,-0.7382813 -0.65625,-1.3828125 -1.8515625,-1.3828125 H 2.3312891 c -0.1875,0 -0.2929688,0 -0.2929688,0.1992187 0,0.1171875 0.09375,0.1171875 0.28125,0.1171875 0.023437,0 0.2109375,0 0.375,0.011719 0.1875,0.023437 0.2695313,0.035156 0.2695313,0.1640625 0,0.035156 -0.011719,0.070312 -0.035156,0.1875 z m 1.5,-2.87109374 0.6210938,-2.4726563 c 0.09375,-0.3515625 0.1054687,-0.375 0.5390625,-0.375 h 1.2890625 c 0.8671875,0 1.078125,0.5859375 1.078125,1.0195313 0,0.8789062 -0.8554688,1.828125 -2.0742188,1.828125 z m -0.4453125,3.33984374 c -0.140625,0 -0.1523437,0 -0.2226562,-0.0117188 -0.09375,-0.0117188 -0.1289063,-0.0234375 -0.1289063,-0.10546875 0,-0.0234375 0,-0.046875 0.058594,-0.22265625 L 3.0344141,-3.4217891 h 1.8867187 c 0.9609375,0 1.1484375,0.7265625 1.1484375,1.1601563 0,0.984375 -0.890625,1.95703124 -2.0625,1.95703124 z m 0,0"
         style="fill:#000000;fill-opacity:1;fill-rule:nonzero;stroke:none;stroke-width:16.0054;stroke-dasharray:none" />
      <path
         id="path25"
         d="m 9.8898828,-2.9354609 c 0,-0.1875 -0.011719,-0.1992188 -0.2109375,-0.1992188 -0.4453125,0.4335938 -1.078125,0.4453125 -1.359375,0.4453125 v 0.2460938 c 0.1640625,0 0.6210938,0 1.0078125,-0.1875 v 3.55078121 c 0,0.23437499 0,0.32812499 -0.6914062,0.32812499 H 8.3664453 v 0.2460938 c 0.1289063,-0.011719 0.984375,-0.023437 1.2421875,-0.023437 0.2109375,0 1.0898442,0.011719 1.2421872,0.023437 V 1.2481328 h -0.257812 c -0.7031252,0 -0.7031252,-0.09375 -0.7031252,-0.32812499 z m 0,0"
         style="fill:#000000;fill-opacity:1;fill-rule:nonzero;stroke:none;stroke-width:16.0054;stroke-dasharray:none" />
    </g>
    <path
       id="path26"
       d="m 380.95385,272.50576 c 0,-13.04675 -10.52248,-23.62274 -23.50307,-23.62274 -12.98055,0 -23.50315,10.57599 -23.50315,23.62274 0,13.04697 10.5226,23.62283 23.50315,23.62283 12.98059,0 23.50307,-10.57586 23.50307,-23.62283 z"
       style="fill:#ffffff;fill-opacity:1;fill-rule:nonzero;stroke:#000000;stroke-width:1.80488;stroke-linecap:butt;stroke-linejoin:miter;stroke-miterlimit:10;stroke-dasharray:none;stroke-opacity:1" />
    <g
       id="g26"
       aria-label="B&#10;2"
       transform="matrix(2.2929708,0,0,2.30294,347.03502,279.2806)"
       style="stroke-width:16.0054;stroke-dasharray:none">
      <path
         id="path27"
         d="m 1.5933906,-0.77335156 c -0.09375,0.38671875 -0.1171875,0.46875 -0.90234373,0.46875 -0.17578125,0 -0.26953125,0 -0.26953125,0.19921875 0,0.1054687475 0.0820313,0.1054687475 0.26953125,0.1054687475 H 4.2418281 c 1.5703125,0 2.7539063,-1.1718750375 2.7539063,-2.1562500375 0,-0.7148437 -0.5859375,-1.2890625 -1.546875,-1.3945312 1.03125,-0.1992188 2.0859375,-0.9375 2.0859375,-1.875 0,-0.7382813 -0.65625,-1.3828125 -1.8515625,-1.3828125 H 2.3316719 c -0.1875,0 -0.2929688,0 -0.2929688,0.1992187 0,0.1171875 0.09375,0.1171875 0.28125,0.1171875 0.023437,0 0.2109375,0 0.375,0.011719 0.1875,0.023437 0.2695313,0.035156 0.2695313,0.1640625 0,0.035156 -0.011719,0.070312 -0.035156,0.1875 z m 1.5,-2.87109374 0.6210938,-2.4726563 c 0.09375,-0.3515625 0.1054687,-0.375 0.5390625,-0.375 h 1.2890625 c 0.8671875,0 1.078125,0.5859375 1.078125,1.0195313 0,0.8789062 -0.8554688,1.828125 -2.0742188,1.828125 z m -0.4453125,3.33984374 c -0.140625,0 -0.1523437,0 -0.2226562,-0.0117188 -0.09375,-0.0117188 -0.1289063,-0.0234375 -0.1289063,-0.10546875 0,-0.0234375 0,-0.046875 0.058594,-0.22265625 L 3.0347969,-3.4217891 h 1.8867187 c 0.9609375,0 1.1484375,0.7265625 1.1484375,1.1601563 0,0.984375 -0.890625,1.95703124 -2.0625,1.95703124 z m 0,0"
         style="fill:#000000;fill-opacity:1;fill-rule:nonzero;stroke:none;stroke-width:16.0054;stroke-dasharray:none" />
      <path
         id="path28"
         d="m 11.07093,0.22860156 h -0.234375 c -0.02344,0.15234375 -0.08203,0.5625 -0.175782,0.6328125 -0.05859,0.0351563 -0.597656,0.0351563 -0.6914058,0.0351563 H 8.6803047 c 0.7382812,-0.64453125 0.984375,-0.84375 1.3945313,-1.171875 0.515625,-0.41015625 0.996094,-0.84374996 0.996094,-1.49999996 0,-0.84375 -0.738282,-1.359375 -1.6289066,-1.359375 -0.8671875,0 -1.453125,0.609375 -1.453125,1.2421875 0,0.3632813 0.3046875,0.3984375 0.375,0.3984375 0.1640625,0 0.375,-0.1171875 0.375,-0.375 0,-0.1289062 -0.058594,-0.3632812 -0.421875,-0.3632812 0.2226563,-0.5039063 0.6914063,-0.65625 1.0195313,-0.65625 0.7031253,0 1.0664063,0.5507812 1.0664063,1.1132812 0,0.609375 -0.4335938,1.08984371 -0.6562501,1.33593746 l -1.6875,1.66406254 c -0.070312,0.058594 -0.070312,0.070312 -0.070312,0.2695313 h 2.8828131 z m 0,0"
         style="fill:#000000;fill-opacity:1;fill-rule:nonzero;stroke:none;stroke-width:16.0054;stroke-dasharray:none" />
    </g>
    <path
       id="path29"
       d="m 313.25213,340.55266 c 0,-13.04677 -10.52264,-23.62292 -23.50316,-23.62292 -12.98062,0 -23.50314,10.57615 -23.50314,23.62292 0,13.04663 10.52252,23.62283 23.50314,23.62283 12.98052,0 23.50316,-10.5762 23.50316,-23.62283 z"
       style="fill:#ffffff;fill-opacity:1;fill-rule:nonzero;stroke:#000000;stroke-width:1.80488;stroke-linecap:butt;stroke-linejoin:miter;stroke-miterlimit:10;stroke-dasharray:none;stroke-opacity:1" />
    <path
       id="path30"
       d="m 282.41637,345.9657 c -1.27041,2.13863 -2.50367,2.58909 -3.88575,2.70154 -0.41096,0 -0.67253,0 -0.67253,0.6382 0,0.18626 0.14843,0.33749 0.41117,0.33749 0.85922,0 1.83106,-0.11204 2.72733,-0.11204 1.04636,0 2.16741,0.11204 3.17612,0.11204 0.18458,0 0.59783,0 0.59783,-0.60028 0,-0.37541 -0.29923,-0.37541 -0.52283,-0.37541 -0.71062,-0.0749 -1.45787,-0.3376 -1.45787,-1.12584 0,-0.37512 0.18458,-0.7501 0.41094,-1.20065 l 2.42886,-4.053 h 7.95824 c 0.0735,0.63822 0.52336,4.99098 0.52336,5.32902 0,0.93802 -1.64415,1.05047 -2.27922,1.05047 -0.44847,0 -0.78445,0 -0.78445,0.6382 0,0.33749 0.41075,0.33749 0.44807,0.33749 1.30817,0 2.69015,-0.11204 3.99791,-0.11204 0.78491,0 2.76499,0.11204 3.58702,0.11204 0.18482,0 0.55987,0 0.55987,-0.63779 0,-0.3379 -0.33598,-0.3379 -0.74708,-0.3379 -1.94314,0 -1.94314,-0.22408 -2.05506,-1.16309 l -1.94256,-19.92595 c -0.0371,-0.63801 -0.0371,-0.78809 -0.59763,-0.78809 -0.52345,0 -0.63532,0.22432 -0.82266,0.56274 z m 3.81111,-4.69122 6.27719,-10.50647 1.00906,10.50647 z m 0,0"
       style="fill:#000000;fill-opacity:1;fill-rule:nonzero;stroke:none;stroke-width:51.1378;stroke-dasharray:none"
       aria-label="A" />
    <path
       id="path31"
       d="m 313.25213,408.59935 c 0,-13.04659 -10.52264,-23.62279 -23.50316,-23.62279 -12.98062,0 -23.50314,10.5762 -23.50314,23.62279 0,13.04684 10.52252,23.623 23.50314,23.623 12.98052,0 23.50316,-10.57616 23.50316,-23.623 z"
       style="fill:#ffffff;fill-opacity:1;fill-rule:nonzero;stroke:#000000;stroke-width:1.80488;stroke-linecap:butt;stroke-linejoin:miter;stroke-miterlimit:10;stroke-dasharray:none;stroke-opacity:1" />
    <path
       id="path32"
       d="m 300.27446,402.61565 c 0,-0.0611 -0.0601,-0.24464 -0.27406,-0.24464 -0.0901,0 -0.12097,0.0302 -0.39569,0.30596 l -1.82713,1.98738 c -0.21316,-0.36677 -1.40086,-2.29334 -4.2932,-2.29334 -5.75529,0 -11.57077,5.74918 -11.57077,11.77409 0,4.12832 2.86203,7.12544 7.0642,7.12544 1.12668,0 2.28366,-0.24468 3.22761,-0.64215 1.27896,-0.52004 1.76621,-1.07051 2.25338,-1.59024 0.21333,0.67267 0.91312,1.6206 1.15659,1.6206 0.12097,0 0.18028,-0.0615 0.18028,-0.0913 0.0603,-0.0611 0.30399,-1.03976 0.42601,-1.59022 l 0.5177,-2.01831 c 0.0917,-0.42813 0.21321,-0.85656 0.33488,-1.31491 0.27435,-1.16223 0.3045,-1.22352 1.76595,-1.25389 0.15043,0 0.4264,-0.0306 0.4264,-0.52019 0,-0.18261 -0.12096,-0.27505 -0.33518,-0.27505 -0.60853,0 -2.13096,0.0611 -2.70975,0.0611 -0.82211,0 -2.83185,-0.0611 -3.62342,-0.0611 -0.24372,0 -0.54801,0 -0.54801,0.51995 0,0.27529 0.213,0.27529 0.76112,0.27529 0.0297,0 0.79187,0 1.37064,0.0613 0.66914,0.0909 0.82211,0.15179 0.82211,0.48936 0,0.24477 -0.30505,1.40659 -0.5484,2.35477 -0.73084,2.87489 -4.11084,3.14991 -4.99382,3.14991 -2.49672,0 -5.20678,-1.46802 -5.20678,-5.44354 0,-0.82579 0.24329,-5.10735 2.98395,-8.47153 1.40053,-1.77367 3.89785,-3.36356 6.45567,-3.36356 2.64872,0 4.17119,2.01816 4.17119,5.01509 0,1.03972 -0.0903,1.07041 -0.0903,1.31519 0,0.27505 0.30454,0.27505 0.39567,0.27505 0.33486,0 0.33486,-0.0611 0.45713,-0.51983 z m 0,0"
       style="fill:#000000;fill-opacity:1;fill-rule:nonzero;stroke:none;stroke-width:41.675;stroke-dasharray:none"
       aria-label="G" />
    <path
       id="path33"
       d="m 492.81534,340.55266 c 11.15799,24.04994 11.15799,43.99682 0,68.04669"
       style="fill:none;stroke:#000000;stroke-width:1.80488;stroke-linecap:butt;stroke-linejoin:miter;stroke-miterlimit:10;stroke-dasharray:none;stroke-opacity:1" />
    <path
       id="path34"
       d="m 492.81534,340.55266 c 4.58456,26.13327 4.58456,41.91348 0,68.04669"
       style="fill:none;stroke:#000000;stroke-width:1.80488;stroke-linecap:butt;stroke-linejoin:miter;stroke-miterlimit:10;stroke-dasharray:none;stroke-opacity:1" />
    <path
       id="path35"
       d="m 492.81534,340.55266 c -4.58437,26.13327 -4.58437,41.91348 0,68.04669"
       style="fill:none;stroke:#000000;stroke-width:1.80488;stroke-linecap:butt;stroke-linejoin:miter;stroke-miterlimit:10;stroke-dasharray:none;stroke-opacity:1" />
    <path
       id="path36"
       d="m 492.81534,340.55266 c -11.15776,24.04994 -11.15776,43.99682 0,68.04669"
       style="fill:none;stroke:#000000;stroke-width:1.80488;stroke-linecap:butt;stroke-linejoin:miter;stroke-miterlimit:10;stroke-dasharray:none;stroke-opacity:1" />
    <path
       id="path37"
       d="m 492.81534,340.55266 c -35.22686,-12.88681 -54.8803,-32.64045 -67.70168,-68.0469"
       style="fill:none;stroke:#000000;stroke-width:1.80488;stroke-linecap:butt;stroke-linejoin:miter;stroke-miterlimit:10;stroke-dasharray:none;stroke-opacity:1" />
    <path
       id="path38"
       d="m 492.81534,340.55266 c -30.70804,-21.61191 -46.1995,-37.18222 -67.70168,-68.0469"
       style="fill:none;stroke:#000000;stroke-width:1.80488;stroke-linecap:butt;stroke-linejoin:miter;stroke-miterlimit:10;stroke-dasharray:none;stroke-opacity:1" />
    <path
       id="path39"
       d="m 492.81534,340.55266 c -21.50215,-30.86461 -36.99356,-46.43498 -67.70168,-68.0469"
       style="fill:none;stroke:#000000;stroke-width:1.80488;stroke-linecap:butt;stroke-linejoin:miter;stroke-miterlimit:10;stroke-dasharray:none;stroke-opacity:1" />
    <path
       id="path40"
       d="m 492.81534,340.55266 c -12.82133,-35.40649 -32.47479,-55.15993 -67.70168,-68.0469"
       style="fill:none;stroke:#000000;stroke-width:1.80488;stroke-linecap:butt;stroke-linejoin:miter;stroke-miterlimit:10;stroke-dasharray:none;stroke-opacity:1" />
    <path
       id="path41"
       d="m 492.81534,340.55266 c 12.82153,-35.40649 32.47501,-55.15993 67.70192,-68.0469"
       style="fill:none;stroke:#000000;stroke-width:1.80488;stroke-linecap:butt;stroke-linejoin:miter;stroke-miterlimit:10;stroke-dasharray:none;stroke-opacity:1" />
    <path
       id="path42"
       d="m 492.81534,340.55266 c 21.50245,-30.86461 36.99381,-46.43498 67.70192,-68.0469"
       style="fill:none;stroke:#000000;stroke-width:1.80488;stroke-linecap:butt;stroke-linejoin:miter;stroke-miterlimit:10;stroke-dasharray:none;stroke-opacity:1" />
    <path
       id="path43"
       d="m 492.81534,340.55266 c 30.70815,-21.61191 46.19955,-37.18222 67.70192,-68.0469"
       style="fill:none;stroke:#000000;stroke-width:1.80488;stroke-linecap:butt;stroke-linejoin:miter;stroke-miterlimit:10;stroke-dasharray:none;stroke-opacity:1" />
    <path
       id="path44"
       d="m 492.81534,340.55266 c 35.22695,-12.88681 54.88043,-32.64045 67.70192,-68.0469"
       style="fill:none;stroke:#000000;stroke-width:1.80488;stroke-linecap:butt;stroke-linejoin:miter;stroke-miterlimit:10;stroke-dasharray:none;stroke-opacity:1" />
    <path
       id="path45"
       d="m 425.11366,272.50576 c 12.82138,-35.40639 32.47482,-55.16004 67.70168,-68.0469"
       style="fill:none;stroke:#000000;stroke-width:1.80488;stroke-linecap:butt;stroke-linejoin:miter;stroke-miterlimit:10;stroke-dasharray:none;stroke-opacity:1" />
    <path
       id="path46"
       d="m 425.11366,272.50576 c 21.50218,-30.86461 36.99364,-46.43501 67.70168,-68.0469"
       style="fill:none;stroke:#000000;stroke-width:1.80488;stroke-linecap:butt;stroke-linejoin:miter;stroke-miterlimit:10;stroke-dasharray:none;stroke-opacity:1" />
    <path
       id="path47"
       d="m 425.11366,272.50576 c 30.70812,-21.61191 46.19953,-37.18227 67.70168,-68.0469"
       style="fill:none;stroke:#000000;stroke-width:1.80488;stroke-linecap:butt;stroke-linejoin:miter;stroke-miterlimit:10;stroke-dasharray:none;stroke-opacity:1" />
    <path
       id="path48"
       d="m 425.11366,272.50576 c 35.22689,-12.88685 54.88035,-32.6404 67.70168,-68.0469"
       style="fill:none;stroke:#000000;stroke-width:1.80488;stroke-linecap:butt;stroke-linejoin:miter;stroke-miterlimit:10;stroke-dasharray:none;stroke-opacity:1" />
    <path
       id="path49"
       d="m 560.51726,272.50576 c -35.22691,-12.88685 -54.88039,-32.6404 -67.70192,-68.0469"
       style="fill:none;stroke:#000000;stroke-width:1.80488;stroke-linecap:butt;stroke-linejoin:miter;stroke-miterlimit:10;stroke-dasharray:none;stroke-opacity:1" />
    <path
       id="path50"
       d="m 560.51726,272.50576 c -30.70811,-21.61191 -46.19947,-37.18227 -67.70192,-68.0469"
       style="fill:none;stroke:#000000;stroke-width:1.80488;stroke-linecap:butt;stroke-linejoin:miter;stroke-miterlimit:10;stroke-dasharray:none;stroke-opacity:1" />
    <path
       id="path51"
       d="m 560.51726,272.50576 c -21.50237,-30.86461 -36.99377,-46.43501 -67.70192,-68.0469"
       style="fill:none;stroke:#000000;stroke-width:1.80488;stroke-linecap:butt;stroke-linejoin:miter;stroke-miterlimit:10;stroke-dasharray:none;stroke-opacity:1" />
    <path
       id="path52"
       d="m 560.51726,272.50576 c -12.82149,-35.40639 -32.47497,-55.16004 -67.70192,-68.0469"
       style="fill:none;stroke:#000000;stroke-width:1.80488;stroke-linecap:butt;stroke-linejoin:miter;stroke-miterlimit:10;stroke-dasharray:none;stroke-opacity:1" />
    <path
       id="path53"
       d="m 448.61677,272.50576 c 0,-13.04675 -10.52264,-23.62274 -23.50311,-23.62274 -12.98063,0 -23.50316,10.57599 -23.50316,23.62274 0,13.04697 10.52253,23.62283 23.50316,23.62283 12.98047,0 23.50311,-10.57586 23.50311,-23.62283 z"
       style="fill:#ffffff;fill-opacity:1;fill-rule:nonzero;stroke:#000000;stroke-width:1.80488;stroke-linecap:butt;stroke-linejoin:miter;stroke-miterlimit:10;stroke-dasharray:none;stroke-opacity:1" />
    <g
       id="g53"
       aria-label="B&#10;1"
       transform="matrix(2.3622932,0,0,2.3725639,411.34984,279.75464)"
       style="stroke-width:16.0054;stroke-dasharray:none">
      <path
         id="path54"
         d="m 1.5923203,-0.77335156 c -0.09375,0.38671875 -0.1171875,0.46875 -0.90234374,0.46875 -0.17578125,0 -0.26953125,0 -0.26953125,0.19921875 0,0.1054687475 0.0820312,0.1054687475 0.26953125,0.1054687475 H 4.2407578 c 1.5703125,0 2.7539063,-1.1718750375 2.7539063,-2.1562500375 0,-0.7148437 -0.5859375,-1.2890625 -1.546875,-1.3945312 1.03125,-0.1992188 2.0859375,-0.9375 2.0859375,-1.875 0,-0.7382813 -0.65625,-1.3828125 -1.8515625,-1.3828125 H 2.3306016 c -0.1875,0 -0.2929688,0 -0.2929688,0.1992187 0,0.1171875 0.09375,0.1171875 0.28125,0.1171875 0.023437,0 0.2109375,0 0.375,0.011719 0.1875,0.023437 0.2695313,0.035156 0.2695313,0.1640625 0,0.035156 -0.011719,0.070312 -0.035156,0.1875 z m 1.5,-2.87109374 0.6210938,-2.4726563 c 0.09375,-0.3515625 0.1054687,-0.375 0.5390625,-0.375 h 1.2890625 c 0.8671875,0 1.078125,0.5859375 1.078125,1.0195313 0,0.8789062 -0.8554688,1.828125 -2.0742188,1.828125 z m -0.4453125,3.33984374 c -0.140625,0 -0.1523437,0 -0.2226562,-0.0117188 -0.09375,-0.0117188 -0.1289063,-0.0234375 -0.1289063,-0.10546875 0,-0.0234375 0,-0.046875 0.058594,-0.22265625 L 3.0337266,-3.4217891 h 1.8867187 c 0.9609375,0 1.1484375,0.7265625 1.1484375,1.1601563 0,0.984375 -0.890625,1.95703124 -2.0625,1.95703124 z m 0,0"
         style="fill:#000000;fill-opacity:1;fill-rule:nonzero;stroke:none;stroke-width:16.0054;stroke-dasharray:none" />
      <path
         id="path55"
         d="m 9.8891953,-2.9354609 c 0,-0.1875 -0.011719,-0.1992188 -0.2109375,-0.1992188 -0.4453125,0.4335938 -1.078125,0.4453125 -1.359375,0.4453125 v 0.2460938 c 0.1640625,0 0.6210938,0 1.0078125,-0.1875 v 3.55078121 c 0,0.23437499 0,0.32812499 -0.6914062,0.32812499 H 8.3657578 v 0.2460938 c 0.1289063,-0.011719 0.984375,-0.023437 1.2421875,-0.023437 0.2109375,0 1.0898437,0.011719 1.2421877,0.023437 V 1.2481328 H 10.59232 c -0.7031247,0 -0.7031247,-0.09375 -0.7031247,-0.32812499 z m 0,0"
         style="fill:#000000;fill-opacity:1;fill-rule:nonzero;stroke:none;stroke-width:16.0054;stroke-dasharray:none" />
    </g>
    <path
       id="path56"
       d="m 584.0203,272.50576 c 0,-13.04675 -10.52254,-23.62274 -23.50304,-23.62274 -12.98061,0 -23.50323,10.57599 -23.50323,23.62274 0,13.04697 10.52262,23.62283 23.50323,23.62283 12.9805,0 23.50304,-10.57586 23.50304,-23.62283 z"
       style="fill:#ffffff;fill-opacity:1;fill-rule:nonzero;stroke:#000000;stroke-width:1.80488;stroke-linecap:butt;stroke-linejoin:miter;stroke-miterlimit:10;stroke-dasharray:none;stroke-opacity:1" />
    <g
       id="g56"
       aria-label="B&#10;2"
       transform="matrix(2.4979298,0,0,2.5087901,547.2196,279.65852)"
       style="stroke-width:16.0054;stroke-dasharray:none">
      <path
         id="path57"
         d="m 1.5937031,-0.77335156 c -0.09375,0.38671875 -0.1171875,0.46875 -0.90234373,0.46875 -0.17578125,0 -0.26953125,0 -0.26953125,0.19921875 0,0.1054687475 0.0820313,0.1054687475 0.26953125,0.1054687475 H 4.2421406 c 1.5703125,0 2.7539063,-1.1718750375 2.7539063,-2.1562500375 0,-0.7148437 -0.5859375,-1.2890625 -1.546875,-1.3945312 1.03125,-0.1992188 2.0859375,-0.9375 2.0859375,-1.875 0,-0.7382813 -0.65625,-1.3828125 -1.8515625,-1.3828125 H 2.3319844 c -0.1875,0 -0.2929688,0 -0.2929688,0.1992187 0,0.1171875 0.09375,0.1171875 0.28125,0.1171875 0.023437,0 0.2109375,0 0.375,0.011719 0.1875,0.023437 0.2695313,0.035156 0.2695313,0.1640625 0,0.035156 -0.011719,0.070312 -0.035156,0.1875 z m 1.5,-2.87109374 0.6210938,-2.4726563 c 0.09375,-0.3515625 0.1054687,-0.375 0.5390625,-0.375 h 1.2890625 c 0.8671875,0 1.078125,0.5859375 1.078125,1.0195313 0,0.8789062 -0.8554688,1.828125 -2.0742188,1.828125 z m -0.4453125,3.33984374 c -0.140625,0 -0.1523437,0 -0.2226562,-0.0117188 -0.09375,-0.0117188 -0.1289063,-0.0234375 -0.1289063,-0.10546875 0,-0.0234375 0,-0.046875 0.058594,-0.22265625 L 3.0351094,-3.4217891 h 1.8867187 c 0.9609375,0 1.1484375,0.7265625 1.1484375,1.1601563 0,0.984375 -0.890625,1.95703124 -2.0625,1.95703124 z m 0,0"
         style="fill:#000000;fill-opacity:1;fill-rule:nonzero;stroke:none;stroke-width:16.0054;stroke-dasharray:none" />
      <path
         id="path58"
         d="m 11.071242,0.22860156 h -0.234375 c -0.02344,0.15234375 -0.08203,0.5625 -0.175781,0.6328125 -0.05859,0.0351563 -0.597656,0.0351563 -0.6914063,0.0351563 H 8.6806172 c 0.7382812,-0.64453125 0.984375,-0.84375 1.3945308,-1.171875 0.515625,-0.41015625 0.996094,-0.84374996 0.996094,-1.49999996 0,-0.84375 -0.738281,-1.359375 -1.6289061,-1.359375 -0.8671875,0 -1.453125,0.609375 -1.453125,1.2421875 0,0.3632813 0.3046875,0.3984375 0.375,0.3984375 0.1640625,0 0.375,-0.1171875 0.375,-0.375 0,-0.1289062 -0.058594,-0.3632812 -0.421875,-0.3632812 0.2226563,-0.5039063 0.6914063,-0.65625 1.0195313,-0.65625 0.7031248,0 1.0664058,0.5507812 1.0664058,1.1132812 0,0.609375 -0.4335933,1.08984371 -0.6562496,1.33593746 l -1.6875,1.66406254 c -0.070312,0.058594 -0.070312,0.070312 -0.070312,0.2695313 h 2.8828116 z m 0,0"
         style="fill:#000000;fill-opacity:1;fill-rule:nonzero;stroke:none;stroke-width:16.0054;stroke-dasharray:none" />
    </g>
    <path
       id="path59"
       d="m 516.31846,340.55266 c 0,-13.04677 -10.52246,-23.62292 -23.50312,-23.62292 -12.98042,0 -23.50301,10.57615 -23.50301,23.62292 0,13.04663 10.52259,23.62283 23.50301,23.62283 12.98066,0 23.50312,-10.5762 23.50312,-23.62283 z"
       style="fill:#ffffff;fill-opacity:1;fill-rule:nonzero;stroke:#000000;stroke-width:1.80488;stroke-linecap:butt;stroke-linejoin:miter;stroke-miterlimit:10;stroke-dasharray:none;stroke-opacity:1" />
    <path
       id="path60"
       d="m 486.98997,347.13636 c -1.04282,1.75546 -2.05502,2.12521 -3.18984,2.21751 -0.33755,0 -0.55198,0 -0.55198,0.52386 0,0.15288 0.12184,0.27702 0.33725,0.27702 0.70543,0 1.50295,-0.092 2.23886,-0.092 0.85902,0 1.77882,0.092 2.60705,0.092 0.15112,0 0.49045,0 0.49045,-0.49273 0,-0.30815 -0.24534,-0.30815 -0.42908,-0.30815 -0.58302,-0.0615 -1.1967,-0.27712 -1.1967,-0.92413 0,-0.30791 0.15151,-0.6157 0.3377,-0.98553 l 1.99359,-3.32683 h 6.53244 c 0.0607,0.52387 0.42939,4.09675 0.42939,4.37423 0,0.76996 -1.34915,0.86226 -1.87101,0.86226 -0.36769,0 -0.64408,0 -0.64408,0.52386 0,0.27702 0.33771,0.27702 0.36824,0.27702 1.07354,0 2.2082,-0.092 3.28123,-0.092 0.64453,0 2.26978,0.092 2.94442,0.092 0.15151,0 0.46013,0 0.46013,-0.52353 0,-0.27735 -0.27627,-0.27735 -0.61313,-0.27735 -1.59478,0 -1.59478,-0.18393 -1.68698,-0.9547 l -1.59491,-16.35587 c -0.0301,-0.5237 -0.0301,-0.64689 -0.49079,-0.64689 -0.42919,0 -0.52085,0.18413 -0.67442,0.46192 z m 3.12807,-3.85071 5.15217,-8.62405 0.82813,8.62405 z m 0,0"
       style="fill:#000000;fill-opacity:1;fill-rule:nonzero;stroke:none;stroke-width:41.9756;stroke-dasharray:none"
       aria-label="A" />
    <path
       id="path61"
       d="m 516.31846,408.59935 c 0,-13.04659 -10.52246,-23.62279 -23.50312,-23.62279 -12.98042,0 -23.50301,10.5762 -23.50301,23.62279 0,13.04684 10.52259,23.623 23.50301,23.623 12.98066,0 23.50312,-10.57616 23.50312,-23.623 z"
       style="fill:#ffffff;fill-opacity:1;fill-rule:nonzero;stroke:#000000;stroke-width:1.80488;stroke-linecap:butt;stroke-linejoin:miter;stroke-miterlimit:10;stroke-dasharray:none;stroke-opacity:1" />
    <path
       id="path62"
       d="m 492.81534,408.59935 c 146.6591,-45.36888 135.37772,-204.11429 0,-204.14049"
       style="fill:none;stroke:#ff0000;stroke-width:1.80488;stroke-linecap:butt;stroke-linejoin:miter;stroke-miterlimit:10;stroke-dasharray:none;stroke-opacity:1" />
    <path
       id="path63"
       d="m 496.19969,412.00102 c 150.04343,-41.96756 138.76194,-214.319 3.38438,-214.34523"
       style="fill:none;stroke:#ff0000;stroke-width:1.80488;stroke-linecap:butt;stroke-linejoin:miter;stroke-miterlimit:10;stroke-dasharray:none;stroke-opacity:1" />
    <path
       id="path64"
       d="m 499.58407,415.40231 c 153.4282,-38.56489 142.14686,-224.52399 6.76917,-224.55022"
       style="fill:none;stroke:#ff0000;stroke-width:1.80488;stroke-linecap:butt;stroke-linejoin:miter;stroke-miterlimit:10;stroke-dasharray:none;stroke-opacity:1" />
    <path
       id="path65"
       d="m 530.42044,204.45886 c 0,-20.87453 -16.83615,-37.79661 -37.6051,-37.79661 -20.76877,0 -37.60483,16.92208 -37.60483,37.79661 0,20.8748 16.83606,37.79665 37.60483,37.79665 20.76895,0 37.6051,-16.92185 37.6051,-37.79665 z"
       style="fill:#ffffff;fill-opacity:1;fill-rule:nonzero;stroke:#000000;stroke-width:1.80488;stroke-linecap:butt;stroke-linejoin:miter;stroke-miterlimit:10;stroke-dasharray:none;stroke-opacity:1" />
    <path
       id="path66"
       d="m 507.46249,193.8303 c 0,-0.0824 -0.0808,-0.3301 -0.36955,-0.3301 -0.12342,0 -0.16316,0.0405 -0.53429,0.41223 l -2.46382,2.68154 c -0.2875,-0.495 -1.88912,-3.09377 -5.79086,-3.09377 -7.7626,0 -15.6066,7.75516 -15.6066,15.88031 0,5.77525 4.10666,9.61152 9.44625,9.61152 3.0388,0 5.66717,-1.40255 7.51542,-3.01148 3.28596,-2.88759 3.86071,-6.06359 3.86071,-6.18725 0,-0.37158 -0.36952,-0.37158 -0.41089,-0.37158 -0.20289,0 -0.41028,0.0829 -0.45202,0.37158 -0.32824,1.03112 -1.10831,3.50603 -3.53169,5.52736 -2.42285,1.98014 -4.59994,2.5574 -6.44811,2.5574 -3.12095,0 -6.81735,-1.81483 -6.81735,-7.26027 0,-2.02122 0.73918,-7.71292 4.23023,-11.79647 2.13531,-2.47509 5.37986,-4.24863 8.50139,-4.24863 3.57337,0 5.62662,2.72251 5.62662,6.76527 0,1.40202 -0.12105,1.44297 -0.12105,1.77278 0,0.37137 0.41053,0.37137 0.53405,0.37137 0.45118,0 0.45118,-0.0819 0.61597,-0.70118 z m 0,0"
       style="fill:#000000;fill-opacity:1;fill-rule:nonzero;stroke:none;stroke-width:56.2115;stroke-dasharray:none"
       aria-label="C" />
    <path
       id="path67"
       d="m 515.25323,408.59935 c 0,-7.44546 -6.00505,-13.48105 -13.41284,-13.48105 -7.40779,0 -13.41286,6.03559 -13.41286,13.48105 0,7.44548 6.00507,13.48131 13.41286,13.48131 7.40779,0 13.41284,-6.03583 13.41284,-13.48131 z"
       style="fill:#ffffff;fill-opacity:1;fill-rule:nonzero;stroke:#000000;stroke-width:1.80488;stroke-linecap:butt;stroke-linejoin:miter;stroke-miterlimit:10;stroke-dasharray:none;stroke-opacity:1" />
    <path
       id="path68"
       d="m 497.95889,413.38949 c -0.17412,0.7208 -0.21749,0.87354 -1.67458,0.87354 -0.32606,0 -0.52194,0 -0.52194,0.34962 0,0.21826 0.17415,0.21826 0.52194,0.21826 h 6.11093 c 3.84892,0 7.48045,-3.90953 7.48045,-7.99379 0,-2.59933 -1.56553,-4.69579 -4.32732,-4.69579 h -6.2196 c -0.34799,0 -0.54358,0 -0.54358,0.37143 0,0.21826 0.15234,0.21826 0.52206,0.21826 0.23922,0 0.58722,0.022 0.8044,0.022 0.28272,0.0438 0.39141,0.10841 0.39141,0.30584 0,0.0651 0,0.13056 -0.0648,0.34917 z m 4.00127,-9.95971 c 0.15219,-0.65494 0.19597,-0.69876 1.0004,-0.69876 h 1.97881 c 1.80496,0 3.32719,0.98269 3.32719,3.42884 0,0.9175 -0.36967,3.95336 -1.93541,6.00649 -0.52183,0.67727 -2.00063,2.09668 -4.26233,2.09668 h -2.0874 c -0.26123,0 -0.30443,0 -0.41342,-0.0215 -0.17369,-0.0217 -0.23923,-0.0439 -0.23923,-0.19641 0,-0.0438 0,-0.0864 0.0864,-0.41507 z m 0,0"
       style="fill:#000000;fill-opacity:1;fill-rule:nonzero;stroke:none;stroke-width:29.7638;stroke-dasharray:none"
       aria-label="D" />
    <path
       id="path69"
       d="m 594.41861,190.83437 c 0.20887,-0.84501 0.31554,-1.02104 0.7006,-1.09145 0.24517,-0.0703 1.22625,-0.0703 1.8568,-0.0703 3.01246,0 4.34343,0.10568 4.34343,2.46455 0,0.4225 -0.10523,1.58459 -0.24497,2.39438 0,0.10567 -0.0692,0.45754 -0.0692,0.56308 0,0.17598 0.0692,0.38731 0.35049,0.38731 0.31517,0 0.38522,-0.24644 0.45532,-0.70396 l 0.80555,-5.21097 c 0.0351,-0.10568 0.0351,-0.42255 0.0351,-0.49294 0,-0.31692 -0.28021,-0.31692 -0.80569,-0.31692 h -16.4987 c -0.73568,0 -0.77063,0 -0.94593,0.59855 l -1.78632,5.24628 c -0.0352,0.0703 -0.20888,0.49265 -0.20888,0.52787 0,0.21113 0.17463,0.35209 0.38542,0.35209 0.28023,0 0.31518,-0.14083 0.49017,-0.63361 1.6114,-4.6476 2.38207,-5.17571 6.79587,-5.17571 h 1.15582 c 0.84071,0 0.84071,0.10568 0.84071,0.35198 0,0.17598 -0.10545,0.52818 -0.13948,0.63379 l -3.95846,15.98404 c -0.28019,1.09169 -0.38526,1.44372 -3.57298,1.44372 -1.05067,0 -1.22585,0 -1.22585,0.56331 0,0.35211 0.31511,0.35211 0.49035,0.35211 0.80575,0 1.64644,-0.0703 2.45192,-0.0703 0.84066,0 1.68141,-0.0352 2.52214,-0.0352 0.84071,0 1.68139,0.0352 2.48713,0.0352 0.84068,0 1.75151,0.0703 2.59217,0.0703 0.28016,0 0.63057,0 0.63057,-0.59851 0,-0.31691 -0.24522,-0.31691 -1.01579,-0.31691 -0.73563,0 -1.12092,0 -1.89173,-0.0703 -0.87565,-0.10568 -1.08579,-0.17598 -1.08579,-0.66915 0,-0.0351 0,-0.17598 0.10501,-0.6337 z m 0,0"
       style="fill:#ff0000;fill-opacity:1;fill-rule:nonzero;stroke:none;stroke-width:10.2055;stroke-dasharray:none"
       aria-label="T" />
  </g>
</svg>
