<svg version="1.1" viewBox="0.0 0.0 598.5643044619422 252.8188976377953" fill="none" stroke="none" stroke-linecap="square" stroke-miterlimit="10" xmlns:xlink="http://www.w3.org/1999/xlink" xmlns="http://www.w3.org/2000/svg"><clipPath id="p.0"><path d="m0 0l598.56433 0l0 252.8189l-598.56433 0l0 -252.8189z" clip-rule="nonzero"/></clipPath><g clip-path="url(#p.0)"><path fill="#000000" fill-opacity="0.0" d="m0 0l598.56433 0l0 252.8189l-598.56433 0z" fill-rule="evenodd"/><path fill="#ffff00" d="m115.36999 25.125984c0 -6.731785 5.795624 -12.188976 12.944878 -12.188976c3.433197 0 6.7257843 1.2841921 9.153412 3.5700684c2.4276428 2.2858772 3.7914734 5.3861904 3.7914734 8.618908c0 6.7317867 -5.795624 12.188976 -12.944885 12.188976c-7.149254 0 -12.944878 -5.4571896 -12.944878 -12.188976z" fill-rule="evenodd"/><path stroke="#595959" stroke-width="2.6824146981627295" stroke-linejoin="round" stroke-linecap="butt" d="m115.36999 25.125984c0 -6.731785 5.795624 -12.188976 12.944878 -12.188976c3.433197 0 6.7257843 1.2841921 9.153412 3.5700684c2.4276428 2.2858772 3.7914734 5.3861904 3.7914734 8.618908c0 6.7317867 -5.795624 12.188976 -12.944885 12.188976c-7.149254 0 -12.944878 -5.4571896 -12.944878 -12.188976z" fill-rule="evenodd"/><path fill="#eeeeee" d="m13.406824 116.6655c0 -6.7317886 5.795622 -12.18898 12.944881 -12.18898c3.433197 0 6.7257786 1.284195 9.153414 3.5700684c2.4276352 2.285881 3.7914696 5.3861923 3.7914696 8.618912c0 6.7317886 -5.795624 12.18898 -12.944883 12.18898c-7.1492596 0 -12.944881 -5.4571915 -12.944881 -12.18898z" fill-rule="evenodd"/><path stroke="#595959" stroke-width="2.6824146981627295" stroke-linejoin="round" stroke-linecap="butt" d="m13.406824 116.6655c0 -6.7317886 5.795622 -12.18898 12.944881 -12.18898c3.433197 0 6.7257786 1.284195 9.153414 3.5700684c2.4276352 2.285881 3.7914696 5.3861923 3.7914696 8.618912c0 6.7317886 -5.795624 12.18898 -12.944883 12.18898c-7.1492596 0 -12.944881 -5.4571915 -12.944881 -12.18898z" fill-rule="evenodd"/><path fill="#eeeeee" d="m86.277374 116.6655c0 -6.7317886 5.795616 -12.18898 12.944878 -12.18898c3.433197 0 6.7257767 1.284195 9.153412 3.5700684c2.4276428 2.285881 3.7914734 5.3861923 3.7914734 8.618912c0 6.7317886 -5.795624 12.18898 -12.944885 12.18898c-7.1492615 0 -12.944878 -5.4571915 -12.944878 -12.18898z" fill-rule="evenodd"/><path stroke="#595959" stroke-width="2.6824146981627295" stroke-linejoin="round" stroke-linecap="butt" d="m86.277374 116.6655c0 -6.7317886 5.795616 -12.18898 12.944878 -12.18898c3.433197 0 6.7257767 1.284195 9.153412 3.5700684c2.4276428 2.285881 3.7914734 5.3861923 3.7914734 8.618912c0 6.7317886 -5.795624 12.18898 -12.944885 12.18898c-7.1492615 0 -12.944878 -5.4571915 -12.944878 -12.18898z" fill-rule="evenodd"/><path fill="#eeeeee" d="m155.24521 116.6655c0 -6.7317886 5.795624 -12.18898 12.944885 -12.18898c3.433197 0 6.725769 1.284195 9.153412 3.5700684c2.4276276 2.285881 3.7914734 5.3861923 3.7914734 8.618912c0 6.7317886 -5.795624 12.18898 -12.944885 12.18898c-7.1492615 0 -12.944885 -5.4571915 -12.944885 -12.18898z" fill-rule="evenodd"/><path stroke="#595959" stroke-width="2.6824146981627295" stroke-linejoin="round" stroke-linecap="butt" d="m155.24521 116.6655c0 -6.7317886 5.795624 -12.18898 12.944885 -12.18898c3.433197 0 6.725769 1.284195 9.153412 3.5700684c2.4276276 2.285881 3.7914734 5.3861923 3.7914734 8.618912c0 6.7317886 -5.795624 12.18898 -12.944885 12.18898c-7.1492615 0 -12.944885 -5.4571915 -12.944885 -12.18898z" fill-rule="evenodd"/><path fill="#eeeeee" d="m224.21304 116.6655c0 -6.7317886 5.795624 -12.18898 12.944885 -12.18898c3.433197 0 6.725769 1.284195 9.153412 3.5700684c2.4276428 2.285881 3.7914734 5.3861923 3.7914734 8.618912c0 6.7317886 -5.795624 12.18898 -12.944885 12.18898c-7.1492615 0 -12.944885 -5.4571915 -12.944885 -12.18898z" fill-rule="evenodd"/><path stroke="#595959" stroke-width="2.6824146981627295" stroke-linejoin="round" stroke-linecap="butt" d="m224.21304 116.6655c0 -6.7317886 5.795624 -12.18898 12.944885 -12.18898c3.433197 0 6.725769 1.284195 9.153412 3.5700684c2.4276428 2.285881 3.7914734 5.3861923 3.7914734 8.618912c0 6.7317886 -5.795624 12.18898 -12.944885 12.18898c-7.1492615 0 -12.944885 -5.4571915 -12.944885 -12.18898z" fill-rule="evenodd"/><path fill="#000000" fill-opacity="0.0" d="m39.29659 116.6655l46.992123 0" fill-rule="evenodd"/><path stroke="#595959" stroke-width="2.6824146981627295" stroke-linejoin="round" stroke-linecap="butt" d="m39.29659 116.6655l46.992123 0" fill-rule="evenodd"/><path fill="#000000" fill-opacity="0.0" d="m112.16714 116.6655l43.086617 0" fill-rule="evenodd"/><path stroke="#595959" stroke-width="2.6824146981627295" stroke-linejoin="round" stroke-linecap="butt" d="m112.16714 116.6655l43.086617 0" fill-rule="evenodd"/><path fill="#000000" fill-opacity="0.0" d="m181.13498 116.6655l43.08661 0" fill-rule="evenodd"/><path stroke="#595959" stroke-width="2.6824146981627295" stroke-linejoin="round" stroke-linecap="butt" d="m181.13498 116.6655l43.08661 0" fill-rule="evenodd"/><path fill="#000000" fill-opacity="0.0" d="m35.50512 108.046585c0 -14.285027 33.173225 -28.125183 66.34646 -28.57006c33.173233 -0.44488525 66.34645 12.505501 66.34645 25.01101" fill-rule="evenodd"/><path stroke="#595959" stroke-width="2.6824146981627295" stroke-linejoin="round" stroke-linecap="butt" d="m35.50512 108.046585c0 -14.285027 33.173225 -28.125183 66.34646 -28.57006c33.173233 -0.44488525 66.34645 12.505501 66.34645 25.01101" fill-rule="evenodd"/><path fill="#000000" fill-opacity="0.0" d="m26.351706 104.47652c0 -12.5 52.700783 -25.007874 105.40157 -25.0c52.70079 0.007881165 105.40158 12.531502 105.40158 25.062996" fill-rule="evenodd"/><path stroke="#595959" stroke-width="2.6824146981627295" stroke-linejoin="round" stroke-linecap="butt" d="m26.351706 104.47652c0 -12.5 52.700783 -25.007874 105.40157 -25.0c52.70079 0.007881165 105.40158 12.531502 105.40158 25.062996" fill-rule="evenodd"/><path fill="#000000" fill-opacity="0.0" d="m99.22225 128.85448c0 12.5 34.480324 24.992126 68.960625 25.0c34.480316 0.007873535 68.96063 -12.468506 68.96063 -24.937012" fill-rule="evenodd"/><path stroke="#595959" stroke-width="2.6824146981627295" stroke-linejoin="round" stroke-linecap="butt" d="m99.22225 128.85448c0 12.5 34.480324 24.992126 68.960625 25.0c34.480316 0.007873535 68.96063 -12.468506 68.96063 -24.937012" fill-rule="evenodd"/><path fill="#000000" fill-opacity="0.0" d="m128.31487 37.31496l-101.95275 67.14961" fill-rule="evenodd"/><path stroke="#595959" stroke-width="2.6824146981627295" stroke-linejoin="round" stroke-linecap="butt" d="m128.31487 37.31496l-101.95275 67.14961" fill-rule="evenodd"/><path fill="#000000" fill-opacity="0.0" d="m128.31487 37.31496l-29.102356 67.14961" fill-rule="evenodd"/><path stroke="#595959" stroke-width="2.6824146981627295" stroke-linejoin="round" stroke-linecap="butt" d="m128.31487 37.31496l-29.102356 67.14961" fill-rule="evenodd"/><path fill="#000000" fill-opacity="0.0" d="m128.31487 37.31496l39.874023 67.14961" fill-rule="evenodd"/><path stroke="#595959" stroke-width="2.6824146981627295" stroke-linejoin="round" stroke-linecap="butt" d="m128.31487 37.31496l39.874023 67.14961" fill-rule="evenodd"/><path fill="#000000" fill-opacity="0.0" d="m128.31487 37.31496l108.8504 67.14961" fill-rule="evenodd"/><path stroke="#595959" stroke-width="2.6824146981627295" stroke-linejoin="round" stroke-linecap="butt" d="m128.31487 37.31496l108.8504 67.14961" fill-rule="evenodd"/><path fill="#ffff00" d="m13.406824 214.05028c0 -6.731781 5.795622 -12.18898 12.944881 -12.18898c3.433197 0 6.7257786 1.284195 9.153414 3.5700684c2.4276352 2.2858734 3.7914696 5.3862 3.7914696 8.618912c0 6.731781 -5.795624 12.18898 -12.944883 12.18898c-7.1492596 0 -12.944881 -5.457199 -12.944881 -12.18898z" fill-rule="evenodd"/><path stroke="#595959" stroke-width="2.6824146981627295" stroke-linejoin="round" stroke-linecap="butt" d="m13.406824 214.05028c0 -6.731781 5.795622 -12.18898 12.944881 -12.18898c3.433197 0 6.7257786 1.284195 9.153414 3.5700684c2.4276352 2.2858734 3.7914696 5.3862 3.7914696 8.618912c0 6.731781 -5.795624 12.18898 -12.944883 12.18898c-7.1492596 0 -12.944881 -5.457199 -12.944881 -12.18898z" fill-rule="evenodd"/><path fill="#ffff00" d="m224.21304 214.05028c0 -6.731781 5.795624 -12.18898 12.944885 -12.18898c3.433197 0 6.725769 1.284195 9.153412 3.5700684c2.4276428 2.2858734 3.7914734 5.3862 3.7914734 8.618912c0 6.731781 -5.795624 12.18898 -12.944885 12.18898c-7.1492615 0 -12.944885 -5.457199 -12.944885 -12.18898z" fill-rule="evenodd"/><path stroke="#595959" stroke-width="2.6824146981627295" stroke-linejoin="round" stroke-linecap="butt" d="m224.21304 214.05028c0 -6.731781 5.795624 -12.18898 12.944885 -12.18898c3.433197 0 6.725769 1.284195 9.153412 3.5700684c2.4276428 2.2858734 3.7914734 5.3862 3.7914734 8.618912c0 6.731781 -5.795624 12.18898 -12.944885 12.18898c-7.1492615 0 -12.944885 -5.457199 -12.944885 -12.18898z" fill-rule="evenodd"/><path fill="#000000" fill-opacity="0.0" d="m26.351706 201.8613l0 -73.00787" fill-rule="evenodd"/><path stroke="#595959" stroke-width="2.6824146981627295" stroke-linejoin="round" stroke-linecap="butt" d="m26.351706 201.8613l0 -73.00787" fill-rule="evenodd"/><path fill="#000000" fill-opacity="0.0" d="m26.351706 201.8613l72.88189 -73.00787" fill-rule="evenodd"/><path stroke="#595959" stroke-width="2.6824146981627295" stroke-linejoin="round" stroke-linecap="butt" d="m26.351706 201.8613l72.88189 -73.00787" fill-rule="evenodd"/><path fill="#000000" fill-opacity="0.0" d="m26.351706 201.8613l141.82678 -73.00787" fill-rule="evenodd"/><path stroke="#595959" stroke-width="2.6824146981627295" stroke-linejoin="round" stroke-linecap="butt" d="m26.351706 201.8613l141.82678 -73.00787" fill-rule="evenodd"/><path fill="#000000" fill-opacity="0.0" d="m26.351706 201.8613l210.80316 -73.00787" fill-rule="evenodd"/><path stroke="#595959" stroke-width="2.6824146981627295" stroke-linejoin="round" stroke-linecap="butt" d="m26.351706 201.8613l210.80316 -73.00787" fill-rule="evenodd"/><path fill="#000000" fill-opacity="0.0" d="m237.15793 201.8613l-210.80315 -73.00787" fill-rule="evenodd"/><path stroke="#595959" stroke-width="2.6824146981627295" stroke-linejoin="round" stroke-linecap="butt" d="m237.15793 201.8613l-210.80315 -73.00787" fill-rule="evenodd"/><path fill="#000000" fill-opacity="0.0" d="m237.15793 201.8613l-137.92126 -73.00787" fill-rule="evenodd"/><path stroke="#595959" stroke-width="2.6824146981627295" stroke-linejoin="round" stroke-linecap="butt" d="m237.15793 201.8613l-137.92126 -73.00787" fill-rule="evenodd"/><path fill="#000000" fill-opacity="0.0" d="m237.15793 201.8613l-68.97638 -73.00787" fill-rule="evenodd"/><path stroke="#595959" stroke-width="2.6824146981627295" stroke-linejoin="round" stroke-linecap="butt" d="m237.15793 201.8613l-68.97638 -73.00787" fill-rule="evenodd"/><path fill="#000000" fill-opacity="0.0" d="m237.15793 201.86235l0 -73.00787" fill-rule="evenodd"/><path stroke="#595959" stroke-width="2.6824146981627295" stroke-linejoin="round" stroke-linecap="butt" d="m237.15793 201.86235l0 -73.00787" fill-rule="evenodd"/><path fill="#ffff00" d="m438.22037 22.204725c0 -6.7317867 5.795624 -12.188977 12.944885 -12.188977c3.433197 0 6.7257996 1.2841921 9.153412 3.5700684c2.4276428 2.2858763 3.7914734 5.3861914 3.7914734 8.618909c0 6.731785 -5.795624 12.188974 -12.944885 12.188974c-7.1492615 0 -12.944885 -5.4571896 -12.944885 -12.188974z" fill-rule="evenodd"/><path stroke="#595959" stroke-width="2.6824146981627295" stroke-linejoin="round" stroke-linecap="butt" d="m438.22037 22.204725c0 -6.7317867 5.795624 -12.188977 12.944885 -12.188977c3.433197 0 6.7257996 1.2841921 9.153412 3.5700684c2.4276428 2.2858763 3.7914734 5.3861914 3.7914734 8.618909c0 6.731785 -5.795624 12.188974 -12.944885 12.188974c-7.1492615 0 -12.944885 -5.4571896 -12.944885 -12.188974z" fill-rule="evenodd"/><path fill="#eeeeee" d="m336.25723 113.74424c0 -6.7317886 5.7955933 -12.18898 12.944855 -12.18898c3.433197 0 6.7257996 1.284195 9.153412 3.5700684c2.4276428 2.285881 3.7914734 5.3861923 3.7914734 8.618912c0 6.731781 -5.795624 12.188972 -12.944885 12.188972c-7.1492615 0 -12.944855 -5.4571915 -12.944855 -12.188972z" fill-rule="evenodd"/><path stroke="#595959" stroke-width="2.6824146981627295" stroke-linejoin="round" stroke-linecap="butt" d="m336.25723 113.74424c0 -6.7317886 5.7955933 -12.18898 12.944855 -12.18898c3.433197 0 6.7257996 1.284195 9.153412 3.5700684c2.4276428 2.285881 3.7914734 5.3861923 3.7914734 8.618912c0 6.731781 -5.795624 12.188972 -12.944885 12.188972c-7.1492615 0 -12.944855 -5.4571915 -12.944855 -12.188972z" fill-rule="evenodd"/><path fill="#eeeeee" d="m409.12778 113.74424c0 -6.7317886 5.795624 -12.18898 12.944885 -12.18898c3.4331665 0 6.725769 1.284195 9.153412 3.5700684c2.4276123 2.285881 3.7914429 5.3861923 3.7914429 8.618912c0 6.731781 -5.795624 12.188972 -12.944855 12.188972c-7.1492615 0 -12.944885 -5.4571915 -12.944885 -12.188972z" fill-rule="evenodd"/><path stroke="#595959" stroke-width="2.6824146981627295" stroke-linejoin="round" stroke-linecap="butt" d="m409.12778 113.74424c0 -6.7317886 5.795624 -12.18898 12.944885 -12.18898c3.4331665 0 6.725769 1.284195 9.153412 3.5700684c2.4276123 2.285881 3.7914429 5.3861923 3.7914429 8.618912c0 6.731781 -5.795624 12.188972 -12.944855 12.188972c-7.1492615 0 -12.944885 -5.4571915 -12.944885 -12.188972z" fill-rule="evenodd"/><path fill="#eeeeee" d="m478.0956 113.74424c0 -6.7317886 5.795624 -12.18898 12.944885 -12.18898c3.433197 0 6.725769 1.284195 9.153412 3.5700684c2.4276123 2.285881 3.7914429 5.3861923 3.7914429 8.618912c0 6.731781 -5.7955933 12.188972 -12.944855 12.188972c-7.1492615 0 -12.944885 -5.4571915 -12.944885 -12.188972z" fill-rule="evenodd"/><path stroke="#595959" stroke-width="2.6824146981627295" stroke-linejoin="round" stroke-linecap="butt" d="m478.0956 113.74424c0 -6.7317886 5.795624 -12.18898 12.944885 -12.18898c3.433197 0 6.725769 1.284195 9.153412 3.5700684c2.4276123 2.285881 3.7914429 5.3861923 3.7914429 8.618912c0 6.731781 -5.7955933 12.188972 -12.944855 12.188972c-7.1492615 0 -12.944885 -5.4571915 -12.944885 -12.188972z" fill-rule="evenodd"/><path fill="#eeeeee" d="m547.0634 113.74424c0 -6.7317886 5.7956543 -12.18898 12.944885 -12.18898c3.4332275 0 6.725769 1.284195 9.153442 3.5700684c2.4276123 2.285881 3.7914429 5.3861923 3.7914429 8.618912c0 6.731781 -5.7955933 12.188972 -12.944885 12.188972c-7.149231 0 -12.944885 -5.4571915 -12.944885 -12.188972z" fill-rule="evenodd"/><path stroke="#595959" stroke-width="2.6824146981627295" stroke-linejoin="round" stroke-linecap="butt" d="m547.0634 113.74424c0 -6.7317886 5.7956543 -12.18898 12.944885 -12.18898c3.4332275 0 6.725769 1.284195 9.153442 3.5700684c2.4276123 2.285881 3.7914429 5.3861923 3.7914429 8.618912c0 6.731781 -5.7955933 12.188972 -12.944885 12.188972c-7.149231 0 -12.944885 -5.4571915 -12.944885 -12.188972z" fill-rule="evenodd"/><path fill="#000000" fill-opacity="0.0" d="m362.14697 113.74424l46.992126 0" fill-rule="evenodd"/><path stroke="#595959" stroke-width="2.6824146981627295" stroke-linejoin="round" stroke-linecap="butt" d="m362.14697 113.74424l46.992126 0" fill-rule="evenodd"/><path fill="#000000" fill-opacity="0.0" d="m435.01752 113.74424l43.08664 0" fill-rule="evenodd"/><path stroke="#595959" stroke-width="2.6824146981627295" stroke-linejoin="round" stroke-linecap="butt" d="m435.01752 113.74424l43.08664 0" fill-rule="evenodd"/><path fill="#000000" fill-opacity="0.0" d="m503.98535 113.74424l43.08661 0" fill-rule="evenodd"/><path stroke="#595959" stroke-width="2.6824146981627295" stroke-linejoin="round" stroke-linecap="butt" d="m503.98535 113.74424l43.08661 0" fill-rule="evenodd"/><path fill="#000000" fill-opacity="0.0" d="m358.3555 105.12533c0 -14.285034 33.17325 -28.125183 66.346466 -28.570068c33.17325 -0.44487762 66.346466 12.505508 66.346466 25.011017" fill-rule="evenodd"/><path stroke="#595959" stroke-width="2.6824146981627295" stroke-linejoin="round" stroke-linecap="butt" d="m358.3555 105.12533c0 -14.285034 33.17325 -28.125183 66.346466 -28.570068c33.17325 -0.44487762 66.346466 12.505508 66.346466 25.011017" fill-rule="evenodd"/><path fill="#000000" fill-opacity="0.0" d="m349.2021 101.55526c0 -12.5 52.700806 -25.007874 105.40158 -25.0c52.700806 0.007873535 105.40158 12.531494 105.40158 25.062996" fill-rule="evenodd"/><path stroke="#595959" stroke-width="2.6824146981627295" stroke-linejoin="round" stroke-linecap="butt" d="m349.2021 101.55526c0 -12.5 52.700806 -25.007874 105.40158 -25.0c52.700806 0.007873535 105.40158 12.531494 105.40158 25.062996" fill-rule="evenodd"/><path fill="#000000" fill-opacity="0.0" d="m422.07266 125.93321c0 12.5 34.480286 24.992126 68.9606 25.0c34.480347 0.007873535 68.96063 -12.468506 68.96063 -24.937004" fill-rule="evenodd"/><path stroke="#595959" stroke-width="2.6824146981627295" stroke-linejoin="round" stroke-linecap="butt" d="m422.07266 125.93321c0 12.5 34.480286 24.992126 68.9606 25.0c34.480347 0.007873535 68.96063 -12.468506 68.96063 -24.937004" fill-rule="evenodd"/><path fill="#000000" fill-opacity="0.0" d="m451.16525 34.3937l-101.95276 67.149605" fill-rule="evenodd"/><path stroke="#595959" stroke-width="2.6824146981627295" stroke-linejoin="round" stroke-linecap="butt" d="m451.16525 34.3937l-101.95276 67.149605" fill-rule="evenodd"/><path fill="#000000" fill-opacity="0.0" d="m451.16525 34.3937l-29.102356 67.149605" fill-rule="evenodd"/><path stroke="#595959" stroke-width="2.6824146981627295" stroke-linejoin="round" stroke-linecap="butt" d="m451.16525 34.3937l-29.102356 67.149605" fill-rule="evenodd"/><path fill="#000000" fill-opacity="0.0" d="m451.16525 34.3937l39.874023 67.149605" fill-rule="evenodd"/><path stroke="#595959" stroke-width="2.6824146981627295" stroke-linejoin="round" stroke-linecap="butt" d="m451.16525 34.3937l39.874023 67.149605" fill-rule="evenodd"/><path fill="#000000" fill-opacity="0.0" d="m451.16525 34.3937l108.85043 67.149605" fill-rule="evenodd"/><path stroke="#595959" stroke-width="2.6824146981627295" stroke-linejoin="round" stroke-linecap="butt" d="m451.16525 34.3937l108.85043 67.149605" fill-rule="evenodd"/><path fill="#ffff00" d="m336.25723 211.12901c0 -6.731781 5.7955933 -12.188965 12.944855 -12.188965c3.433197 0 6.7257996 1.2841797 9.153412 3.5700684c2.4276428 2.2858734 3.7914734 5.3861847 3.7914734 8.6188965c0 6.7317963 -5.795624 12.18898 -12.944885 12.18898c-7.1492615 0 -12.944855 -5.457184 -12.944855 -12.18898z" fill-rule="evenodd"/><path stroke="#595959" stroke-width="2.6824146981627295" stroke-linejoin="round" stroke-linecap="butt" d="m336.25723 211.12901c0 -6.731781 5.7955933 -12.188965 12.944855 -12.188965c3.433197 0 6.7257996 1.2841797 9.153412 3.5700684c2.4276428 2.2858734 3.7914734 5.3861847 3.7914734 8.6188965c0 6.7317963 -5.795624 12.18898 -12.944885 12.18898c-7.1492615 0 -12.944855 -5.457184 -12.944855 -12.18898z" fill-rule="evenodd"/><path fill="#ffff00" d="m547.0634 211.12901c0 -6.731781 5.7956543 -12.188965 12.944885 -12.188965c3.4332275 0 6.725769 1.2841797 9.153442 3.5700684c2.4276123 2.2858734 3.7914429 5.3861847 3.7914429 8.6188965c0 6.7317963 -5.7955933 12.18898 -12.944885 12.18898c-7.149231 0 -12.944885 -5.457184 -12.944885 -12.18898z" fill-rule="evenodd"/><path stroke="#595959" stroke-width="2.6824146981627295" stroke-linejoin="round" stroke-linecap="butt" d="m547.0634 211.12901c0 -6.731781 5.7956543 -12.188965 12.944885 -12.188965c3.4332275 0 6.725769 1.2841797 9.153442 3.5700684c2.4276123 2.2858734 3.7914429 5.3861847 3.7914429 8.6188965c0 6.7317963 -5.7955933 12.18898 -12.944885 12.18898c-7.149231 0 -12.944885 -5.457184 -12.944885 -12.18898z" fill-rule="evenodd"/><path fill="#000000" fill-opacity="0.0" d="m349.2021 198.94005l0 -73.00788" fill-rule="evenodd"/><path stroke="#595959" stroke-width="2.6824146981627295" stroke-linejoin="round" stroke-linecap="butt" d="m349.2021 198.94005l0 -73.00788" fill-rule="evenodd"/><path fill="#000000" fill-opacity="0.0" d="m349.2021 198.94005l72.8819 -73.00788" fill-rule="evenodd"/><path stroke="#595959" stroke-width="2.6824146981627295" stroke-linejoin="round" stroke-linecap="butt" d="m349.2021 198.94005l72.8819 -73.00788" fill-rule="evenodd"/><path fill="#000000" fill-opacity="0.0" d="m349.2021 198.94005l141.82678 -73.00788" fill-rule="evenodd"/><path stroke="#595959" stroke-width="2.6824146981627295" stroke-linejoin="round" stroke-linecap="butt" d="m349.2021 198.94005l141.82678 -73.00788" fill-rule="evenodd"/><path fill="#000000" fill-opacity="0.0" d="m349.2021 198.94005l210.80316 -73.00788" fill-rule="evenodd"/><path stroke="#595959" stroke-width="2.6824146981627295" stroke-linejoin="round" stroke-linecap="butt" d="m349.2021 198.94005l210.80316 -73.00788" fill-rule="evenodd"/><path fill="#000000" fill-opacity="0.0" d="m560.0083 198.94005l-210.80313 -73.00788" fill-rule="evenodd"/><path stroke="#595959" stroke-width="2.6824146981627295" stroke-linejoin="round" stroke-linecap="butt" d="m560.0083 198.94005l-210.80313 -73.00788" fill-rule="evenodd"/><path fill="#000000" fill-opacity="0.0" d="m560.0083 198.94005l-137.92123 -73.00788" fill-rule="evenodd"/><path stroke="#595959" stroke-width="2.6824146981627295" stroke-linejoin="round" stroke-linecap="butt" d="m560.0083 198.94005l-137.92123 -73.00788" fill-rule="evenodd"/><path fill="#000000" fill-opacity="0.0" d="m560.0083 198.94005l-68.97635 -73.00788" fill-rule="evenodd"/><path stroke="#595959" stroke-width="2.6824146981627295" stroke-linejoin="round" stroke-linecap="butt" d="m560.0083 198.94005l-68.97635 -73.00788" fill-rule="evenodd"/><path fill="#000000" fill-opacity="0.0" d="m560.0083 198.94109l0 -73.00787" fill-rule="evenodd"/><path stroke="#595959" stroke-width="2.6824146981627295" stroke-linejoin="round" stroke-linecap="butt" d="m560.0083 198.94109l0 -73.00787" fill-rule="evenodd"/><path fill="#000000" fill-opacity="0.0" d="m141.25975 25.125984l296.97638 -2.9291344" fill-rule="evenodd"/><path stroke="#ff0000" stroke-width="3.0" stroke-linejoin="round" stroke-linecap="butt" d="m141.25975 25.125984l296.97638 -2.9291344" fill-rule="evenodd"/><path fill="#000000" fill-opacity="0.0" d="m250.10281 214.05028l86.14172 -2.9291382" fill-rule="evenodd"/><path stroke="#ff0000" stroke-width="3.0" stroke-linejoin="round" stroke-linecap="butt" d="m250.10281 214.05028l86.14172 -2.9291382" fill-rule="evenodd"/></g></svg>