<svg version="1.1" viewBox="0.0 0.0 636.007874015748 500.7795275590551" fill="none" stroke="none" stroke-linecap="square" stroke-miterlimit="10" xmlns:xlink="http://www.w3.org/1999/xlink" xmlns="http://www.w3.org/2000/svg"><clipPath id="p.0"><path d="m0 0l636.0079 0l0 500.77954l-636.0079 0l0 -500.77954z" clip-rule="nonzero"/></clipPath><g clip-path="url(#p.0)"><path fill="#000000" fill-opacity="0.0" d="m0 0l636.0079 0l0 500.77954l-636.0079 0z" fill-rule="evenodd"/><path fill="#f6f2ec" d="m204.74297 47.910473c4.8009644 -16.777279 22.29358 -26.486002 39.07086 -21.68504c8.056732 2.3055038 14.86763 7.717106 18.934372 15.044315c4.0667114 7.3272095 5.056183 15.969818 2.7506714 24.026554c-4.8009644 16.777275 -22.29358 26.486 -39.07086 21.685036c-16.777283 -4.8009644 -26.486008 -22.293587 -21.685043 -39.070866z" fill-rule="evenodd"/><path stroke="#000000" stroke-width="3.0" stroke-linejoin="round" stroke-linecap="butt" d="m204.74297 47.910473c4.8009644 -16.777279 22.29358 -26.486002 39.07086 -21.68504c8.056732 2.3055038 14.86763 7.717106 18.934372 15.044315c4.0667114 7.3272095 5.056183 15.969818 2.7506714 24.026554c-4.8009644 16.777275 -22.29358 26.486 -39.07086 21.685036c-16.777283 -4.8009644 -26.486008 -22.293587 -21.685043 -39.070866z" fill-rule="evenodd"/><path fill="#f6f2ec" d="m377.29007 29.694105c3.3746033 -17.116478 19.9859 -28.256481 37.102356 -24.88189c8.219635 1.6205354 15.458862 6.439931 20.125122 13.397973c4.66626 6.958042 6.3773193 15.484766 4.756775 23.70439c-3.3745728 17.116478 -19.98587 28.256481 -37.102356 24.881893c-17.116486 -3.3745956 -28.25647 -19.985886 -24.881897 -37.102364z" fill-rule="evenodd"/><path stroke="#000000" stroke-width="3.0" stroke-linejoin="round" stroke-linecap="butt" d="m377.29007 29.694105c3.3746033 -17.116478 19.9859 -28.256481 37.102356 -24.88189c8.219635 1.6205354 15.458862 6.439931 20.125122 13.397973c4.66626 6.958042 6.3773193 15.484766 4.756775 23.70439c-3.3745728 17.116478 -19.98587 28.256481 -37.102356 24.881893c-17.116486 -3.3745956 -28.25647 -19.985886 -24.881897 -37.102364z" fill-rule="evenodd"/><path fill="#f6f2ec" d="m315.85056 156.51263c-5.7576904 -16.481567 2.9357605 -34.51004 19.417328 -40.267715c7.914734 -2.7649307 16.603638 -2.2725067 24.155304 1.3689423c7.5516663 3.6414566 13.347473 10.133652 16.112396 18.048386c5.7576904 16.481567 -2.9357605 34.51004 -19.417328 40.267715c-16.481567 5.757675 -34.51004 -2.9357605 -40.2677 -19.417328z" fill-rule="evenodd"/><path stroke="#000000" stroke-width="3.0" stroke-linejoin="round" stroke-linecap="butt" d="m315.85056 156.51263c-5.7576904 -16.481567 2.9357605 -34.51004 19.417328 -40.267715c7.914734 -2.7649307 16.603638 -2.2725067 24.155304 1.3689423c7.5516663 3.6414566 13.347473 10.133652 16.112396 18.048386c5.7576904 16.481567 -2.9357605 34.51004 -19.417328 40.267715c-16.481567 5.757675 -34.51004 -2.9357605 -40.2677 -19.417328z" fill-rule="evenodd"/><path fill="#f6f2ec" d="m203.52907 223.84982c-7.9233246 -15.550934 -1.739914 -34.580597 13.81102 -42.503937c7.4678345 -3.8049164 16.141296 -4.4874115 24.112335 -1.8973389c7.9710236 2.5900726 14.5867 8.24054 18.391602 15.708374c7.92334 15.550934 1.7399292 34.580597 -13.81102 42.503937c-15.550949 7.9233246 -34.580612 1.739914 -42.503937 -13.811035z" fill-rule="evenodd"/><path stroke="#000000" stroke-width="3.0" stroke-linejoin="round" stroke-linecap="butt" d="m203.52907 223.84982c-7.9233246 -15.550934 -1.739914 -34.580597 13.81102 -42.503937c7.4678345 -3.8049164 16.141296 -4.4874115 24.112335 -1.8973389c7.9710236 2.5900726 14.5867 8.24054 18.391602 15.708374c7.92334 15.550934 1.7399292 34.580597 -13.81102 42.503937c-15.550949 7.9233246 -34.580612 1.739914 -42.503937 -13.811035z" fill-rule="evenodd"/><path fill="#f6f2ec" d="m449.10236 231.69685c0 -17.455673 14.150635 -31.606308 31.606293 -31.606308c8.382538 0 16.421722 3.3299408 22.34903 9.257278c5.9273376 5.9273224 9.257263 13.966507 9.257263 22.34903c0 17.455673 -14.150604 31.606308 -31.606293 31.606308c-17.455658 0 -31.606293 -14.150635 -31.606293 -31.606308z" fill-rule="evenodd"/><path stroke="#000000" stroke-width="3.0" stroke-linejoin="round" stroke-linecap="butt" d="m449.10236 231.69685c0 -17.455673 14.150635 -31.606308 31.606293 -31.606308c8.382538 0 16.421722 3.3299408 22.34903 9.257278c5.9273376 5.9273224 9.257263 13.966507 9.257263 22.34903c0 17.455673 -14.150604 31.606308 -31.606293 31.606308c-17.455658 0 -31.606293 -14.150635 -31.606293 -31.606308z" fill-rule="evenodd"/><path fill="#000000" fill-opacity="0.0" d="m250.45456 84.23066l-9.007874 95.21259" fill-rule="evenodd"/><path stroke="#453b32" stroke-width="8.0" stroke-linejoin="round" stroke-linecap="butt" d="m250.45456 84.23066l-9.007874 95.21259" fill-rule="evenodd"/><path fill="#000000" fill-opacity="0.0" d="m261.74136 219.26924l187.37009 12.4409485" fill-rule="evenodd"/><path stroke="#453b32" stroke-width="8.0" stroke-linejoin="round" stroke-linecap="butt" d="m261.74136 219.26924l187.37009 12.4409485" fill-rule="evenodd"/><path fill="#000000" fill-opacity="0.0" d="m449.10236 231.69685l-74.92914 -71.87402" fill-rule="evenodd"/><path stroke="#453b32" stroke-width="8.0" stroke-linejoin="round" stroke-linecap="butt" d="m449.10236 231.69685l-74.92914 -71.87402" fill-rule="evenodd"/><path fill="#000000" fill-opacity="0.0" d="m359.4232 117.61386l42.740173 -50.803146" fill-rule="evenodd"/><path stroke="#453b32" stroke-width="8.0" stroke-linejoin="round" stroke-linecap="butt" d="m359.4232 117.61386l42.740173 -50.803146" fill-rule="evenodd"/><path fill="#000000" fill-opacity="0.0" d="m377.29007 29.694105l-114.55118 11.590551" fill-rule="evenodd"/><path stroke="#453b32" stroke-width="8.0" stroke-linejoin="round" stroke-linecap="butt" d="m377.29007 29.694105l-114.55118 11.590551" fill-rule="evenodd"/><path fill="#000000" fill-opacity="0.0" d="m315.85056 156.51263l-56.0 38.645676" fill-rule="evenodd"/><path stroke="#453b32" stroke-width="8.0" stroke-linejoin="round" stroke-linecap="butt" d="m315.85056 156.51263l-56.0 38.645676" fill-rule="evenodd"/><path fill="#000000" fill-opacity="0.0" d="m458.35962 209.34782l-32.472412 -147.3071" fill-rule="evenodd"/><path stroke="#453b32" stroke-width="8.0" stroke-linejoin="round" stroke-linecap="butt" d="m458.35962 209.34782l-32.472412 -147.3071" fill-rule="evenodd"/><path fill="#f6f2ec" d="m258.03473 339.33795c-5.7837677 -16.464172 2.8744202 -34.499695 19.338593 -40.283447c7.906372 -2.7774658 16.592255 -2.3003845 24.146881 1.326294c7.5546265 3.6266785 13.3591 10.105896 16.136566 18.012268c5.783783 16.464172 -2.8743896 34.499695 -19.338562 40.283478c-16.464172 5.7837524 -34.499695 -2.8744202 -40.283478 -19.338593z" fill-rule="evenodd"/><path stroke="#000000" stroke-width="3.0" stroke-linejoin="round" stroke-linecap="butt" d="m258.03473 339.33795c-5.7837677 -16.464172 2.8744202 -34.499695 19.338593 -40.283447c7.906372 -2.7774658 16.592255 -2.3003845 24.146881 1.326294c7.5546265 3.6266785 13.3591 10.105896 16.136566 18.012268c5.783783 16.464172 -2.8743896 34.499695 -19.338562 40.283478c-16.464172 5.7837524 -34.499695 -2.8744202 -40.283478 -19.338593z" fill-rule="evenodd"/><path fill="#f6f2ec" d="m301.26294 487.44757c-15.2291565 -8.5147705 -20.672241 -27.763 -12.157501 -42.992126c4.088928 -7.3132935 10.915588 -12.702728 18.97818 -14.982697c8.062592 -2.2799683 16.700653 -1.2637329 24.013947 2.8251953c15.2291565 8.5147705 20.672241 27.763 12.157501 42.992126c-8.5147705 15.2291565 -27.763 20.672241 -42.992126 12.157501z" fill-rule="evenodd"/><path stroke="#000000" stroke-width="3.0" stroke-linejoin="round" stroke-linecap="butt" d="m301.26294 487.44757c-15.2291565 -8.5147705 -20.672241 -27.763 -12.157501 -42.992126c4.088928 -7.3132935 10.915588 -12.702728 18.97818 -14.982697c8.062592 -2.2799683 16.700653 -1.2637329 24.013947 2.8251953c15.2291565 8.5147705 20.672241 27.763 12.157501 42.992126c-8.5147705 15.2291565 -27.763 20.672241 -42.992126 12.157501z" fill-rule="evenodd"/><path fill="#000000" fill-opacity="0.0" d="m246.033 237.66086l31.338577 61.385834" fill-rule="evenodd"/><path stroke="#453b32" stroke-width="8.0" stroke-linejoin="round" stroke-linecap="butt" d="m246.033 237.66086l31.338577 61.385834" fill-rule="evenodd"/><path fill="#000000" fill-opacity="0.0" d="m298.3182 358.67654l9.763763 70.80313" fill-rule="evenodd"/><path stroke="#453b32" stroke-width="8.0" stroke-linejoin="round" stroke-linecap="butt" d="m298.3182 358.67654l9.763763 70.80313" fill-rule="evenodd"/><path fill="#405863" d="m108.6168 202.32939l66.22047 0l0 -7.173218l14.346466 14.346451l-14.346466 14.346451l0 -7.173218l-66.22047 0z" fill-rule="evenodd"/><path stroke="#405863" stroke-width="1.0" stroke-linejoin="round" stroke-linecap="butt" d="m108.6168 202.32939l66.22047 0l0 -7.173218l14.346466 14.346451l-14.346466 14.346451l0 -7.173218l-66.22047 0z" fill-rule="evenodd"/><path fill="#000000" fill-opacity="0.0" d="m101.154854 144.35564l97.10236 0l0 50.80316l-97.10236 0z" fill-rule="evenodd"/><path fill="#000000" d="m111.529854 175.74876l2.734375 -0.25q0.203125 1.65625 0.90625 2.71875q0.71875 1.046875 2.21875 1.703125q1.5 0.640625 3.359375 0.640625q1.671875 0 2.9375 -0.484375q1.265625 -0.5 1.890625 -1.359375q0.625 -0.859375 0.625 -1.875q0 -1.03125 -0.609375 -1.796875q-0.59375 -0.78125 -1.96875 -1.3125q-0.875 -0.34375 -3.90625 -1.0625q-3.015625 -0.734375 -4.234375 -1.375q-1.578125 -0.8125 -2.34375 -2.03125q-0.765625 -1.234375 -0.765625 -2.734375q0 -1.671875 0.9375 -3.109375q0.9375 -1.453125 2.75 -2.1875q1.8125 -0.75 4.03125 -0.75q2.4375 0 4.296875 0.78125q1.875 0.78125 2.875 2.3125q1.0000076 1.53125 1.0781326 3.453125l-2.7812576 0.21875q-0.234375 -2.09375 -1.53125 -3.15625q-1.28125 -1.0625 -3.8125 -1.0625q-2.640625 0 -3.84375 0.96875q-1.203125 0.96875 -1.203125 2.328125q0 1.1875 0.859375 1.953125q0.828125 0.765625 4.359375 1.5625q3.546875 0.796875 4.875 1.390625q1.90625 0.890625 2.8125076 2.25q0.921875 1.34375 0.921875 3.109375q0 1.75 -1.0000076 3.3125q-1.0 1.546875 -2.890625 2.40625q-1.875 0.859375 -4.21875 0.859375q-2.984375 0 -5.0 -0.859375q-2.0 -0.875 -3.15625 -2.609375q-1.140625 -1.75 -1.203125 -3.953125zm31.978737 1.921875l2.78125 0.34375q-0.65625 2.453125 -2.4375 3.796875q-1.78125 1.34375 -4.546875 1.34375q-3.5 0 -5.546875 -2.140625q-2.03125 -2.15625 -2.03125 -6.03125q0 -4.015625 2.0625 -6.21875q2.0625 -2.21875 5.359375 -2.21875q3.1875 0 5.203125 2.171875q2.03125 2.15625 2.03125 6.09375q0 0.25 -0.015625 0.71875l-11.859375 0q0.15625 2.625 1.484375 4.015625q1.328125 1.390625 3.328125 1.390625q1.46875 0 2.515625 -0.765625q1.0625 -0.78125 1.671875 -2.5zm-8.84375 -4.34375l8.875 0q-0.1875 -2.015625 -1.015625 -3.015625q-1.296875 -1.5625 -3.34375 -1.5625q-1.859375 0 -3.125 1.25q-1.265625 1.234375 -1.390625 3.328125zm25.893295 4.34375l2.78125 0.34375q-0.65625 2.453125 -2.4375 3.796875q-1.78125 1.34375 -4.546875 1.34375q-3.5 0 -5.546875 -2.140625q-2.03125 -2.15625 -2.03125 -6.03125q0 -4.015625 2.0625 -6.21875q2.0625 -2.21875 5.359375 -2.21875q3.1875 0 5.203125 2.171875q2.03125 2.15625 2.03125 6.09375q0 0.25 -0.015625 0.71875l-11.859375 0q0.15625 2.625 1.484375 4.015625q1.328125 1.390625 3.328125 1.390625q1.46875 0 2.515625 -0.765625q1.0625 -0.78125 1.671875 -2.5zm-8.84375 -4.34375l8.875 0q-0.1875 -2.015625 -1.015625 -3.015625q-1.296875 -1.5625 -3.34375 -1.5625q-1.859375 0 -3.125 1.25q-1.265625 1.234375 -1.390625 3.328125zm25.31517 9.46875l0 -2.0q-1.5 2.359375 -4.4375 2.359375q-1.90625 0 -3.5 -1.046875q-1.59375 -1.046875 -2.46875 -2.921875q-0.875 -1.890625 -0.875 -4.328125q0 -2.375 0.796875 -4.3125q0.796875 -1.9375 2.375 -2.96875q1.59375 -1.03125 3.546875 -1.03125q1.4375 0 2.5625 0.609375q1.125 0.59375 1.828125 1.5625l0 -7.859375l2.671875 0l0 21.9375l-2.5 0zm-8.515625 -7.9375q0 3.0625 1.28125 4.578125q1.296875 1.5 3.046875 1.5q1.765625 0 3.0 -1.4375q1.234375 -1.453125 1.234375 -4.40625q0 -3.265625 -1.265625 -4.796875q-1.25 -1.53125 -3.09375 -1.53125q-1.78125 0 -3.0 1.46875q-1.203125 1.46875 -1.203125 4.625z" fill-rule="nonzero"/><path fill="#000000" fill-opacity="0.0" d="m227.70341 170.75197l3.6220398 -50.614174" fill-rule="evenodd"/><path stroke="#405863" stroke-width="3.0" stroke-linejoin="round" stroke-linecap="butt" d="m227.70341 170.75197l2.337204 -32.66008" fill-rule="evenodd"/><path fill="#405863" stroke="#405863" stroke-width="3.0" stroke-linecap="butt" d="m234.98318 138.44559l-3.9707794 -13.933273l-5.914337 13.225861z" fill-rule="evenodd"/><path fill="#000000" fill-opacity="0.0" d="m258.88715 181.56299l43.212585 -38.141724" fill-rule="evenodd"/><path stroke="#405863" stroke-width="3.0" stroke-linejoin="round" stroke-linecap="butt" d="m258.88715 181.56299l29.717499 -26.230255" fill-rule="evenodd"/><path fill="#405863" stroke="#405863" stroke-width="3.0" stroke-linecap="butt" d="m291.88376 159.04776l6.927887 -12.724274l-13.486084 5.2942047z" fill-rule="evenodd"/><path fill="#000000" fill-opacity="0.0" d="m273.68765 209.34776l57.66931 1.0393829" fill-rule="evenodd"/><path stroke="#405863" stroke-width="3.0" stroke-linejoin="round" stroke-linecap="butt" d="m273.68765 209.34776l39.67224 0.71502686" fill-rule="evenodd"/><path fill="#405863" stroke="#405863" stroke-width="3.0" stroke-linecap="butt" d="m313.2706 215.01717l13.701355 -4.7090607l-13.522797 -5.1997223z" fill-rule="evenodd"/><path fill="#000000" fill-opacity="0.0" d="m261.74014 238.17192l25.291351 47.11812" fill-rule="evenodd"/><path stroke="#405863" stroke-width="3.0" stroke-linejoin="round" stroke-linecap="butt" d="m261.74014 238.17192l16.778442 31.258408" fill-rule="evenodd"/><path fill="#405863" stroke="#405863" stroke-width="3.0" stroke-linecap="butt" d="m274.1526 271.77383l10.804718 9.651978l-2.072754 -14.338989z" fill-rule="evenodd"/></g></svg>